{"asset":{"generator":"Khronos glTF Spline I/O v0.0.1","version":"2.0"},"scenes":[{"nodes":[0]}],"nodes":[{"name":"","children":[1,2,3,4]},{"name":"penguin","matrix":[0.7071067811866274,3.586907429119002e-17,0.7071067811866276,0,-8.65956056235492e-17,0.9999999999999989,3.586907429118593e-17,0,-0.7071067811866268,-8.659560562355899e-17,0.7071067811866266,0,0,0,0,1],"children":[5,6,7,8,9,10,11,12]},{"name":"Directional Light","translation":[-384.05576361743147,229.2774562827954,354.34925556361975],"rotation":[-0.37859011909508483,-0.21490842232143684,0.4444291792490516,0.7829218328612984],"extensions":{"KHR_lights_punctual":{"light":0}}},{"name":"Default Camera","camera":0,"translation":[0,-3.6114470355476227,1000],"rotation":[-3.064215547965432e-17,0,0,1]},{"name":"Personal Camera","camera":1,"translation":[575.1717645549071,238.60231812177253,782.4617403079297],"rotation":[-0.11418662647474304,0.30940352968308793,0.03745307143178511,0.9433070219150759]},{"name":"hair","matrix":[3.127388315890695,0,0,0,0,3.127388315890695,0,0,0,0,3.127388315890695,0,28.046467996706493,191.36092951445355,17.979106526827927,1],"children":[13,14]},{"name":"chick","matrix":[3.127388315890695,0,0,0,0,3.127388315890695,0,0,0,0,3.127388315890695,0,15.120043136951317,49.30471784778395,99.5373462688797,1],"children":[15,16]},{"name":"eyes","matrix":[3.127388315890695,0,0,0,0,3.127388315890695,0,0,0,0,3.127388315890695,0,15.120043136951317,75.35816365073411,99.28508551641251,1],"children":[17,18]},{"name":"paws","matrix":[3.127388315890695,0,0,0,0,3.127388315890695,0,0,0,0,3.127388315890695,0,13.25161229891021,-159.42073506713518,96.65329029124551,1],"children":[19,20]},{"name":"peak","matrix":[2.13166577275217,0.0025955242991189944,0.03711772676288786,0,3.3220103873380077e-17,2.1267970635610456,-0.14872013830564146,0,-0.037208364468647635,0.14869748750823544,2.1264731420668928,0,13.655685290915846,52.7736680457427,113.82575075126049,0.9999999999999997],"mesh":0},{"name":"wings","matrix":[3.127388315890695,0,0,0,0,3.127388315890695,0,0,0,0,3.127388315890695,0,3.555428879611435e-13,-29.526688103060252,-0.6898260691067792,1],"children":[21,22]},{"name":"body","matrix":[8.153244723265098,0.05411207221520289,0.13887905106387344,0,-0.044285799078657276,8.134568848792592,-0.5695993652446626,0,-0.14231751537948553,0.5687499912331736,8.13350380813352,0,14.811214074448515,-100.49556309283811,-18.036773069803612,1],"mesh":1},{"name":"head","matrix":[1,0,0,0,0,1,0,0,0,0,1,0,14.597026046919389,64.91706301347695,-1.05035780711777,1],"children":[23,24]},{"name":"Cube 7","matrix":[0.4139209289215616,-0.6219953493264281,0.006849575433109673,0,0.8324514706992878,0.5540521741608968,0.007123007663909903,0,-0.00719685337564345,0.002409226406083394,0.6536837061423768,0,6.5846031399417,-2.5018488130882663,0.06763019220539945,1],"mesh":2},{"name":"Cube 6","matrix":[0.7084712299901114,-0.2371685938495314,0.00867415899894182,0,0.31744601342134027,0.9482763460947966,2.808941623296905e-17,0,-0.007196853375643405,0.0024092264060834364,0.6536837061423767,0,-2.656804688667131,4.078840313768765,-0.05836870660107163,1],"mesh":3},{"name":"Empty Object 5","matrix":[-0.8721843401615622,0,0,0,0,0.30420734435523716,-0.0634655761495411,0,0,0.16986790877179292,0.8142219539122306,0,20.23595258767802,-2.3092291967508066e-13,-0.08066179411924423,1],"children":[25]},{"name":"Empty Object 5","matrix":[0.8383831908262983,0,0,0,0,0.29239717802798193,0,0,0,0,0.8383831908262983,0,-20.414654185156962,-0.037477977308867594,0.4143950733590031,1],"children":[26]},{"name":"Empty Object 4","matrix":[-0.8721843401615622,0,0,0,0,0.830830300198081,-0.11228262079614809,0,0,0.11228262079614809,0.830830300198081,0,20.235952587678014,-3.552713678800501e-15,-3.197442310920451e-14,1],"children":[27]},{"name":"Empty Object 3","matrix":[0.8383831908262983,0,0,0,0,0.8383831908262983,0,0,0,0,0.8383831908262983,0,-20.414654185156966,-0.10745967664115239,0.4950568674782119,1],"children":[28]},{"name":"Empty Object 2","matrix":[-0.9794615483951534,0,0,0,0,1,0,0,0,0,1,0,26.2796659153422,7.105427357601002e-15,2.4868995751603507e-14,1],"children":[29]},{"name":"Cube 5","matrix":[0.8645247229389957,-0.15447622902471278,0.4782615373344935,0,-0.08004755077677003,0.8971249414908097,0.43446430114538603,0,-0.49617476058530974,-0.4138887942689591,0.7632212476973477,0,-25.36703871585694,-7.520839641067935,5.31147898581465,1],"mesh":4},{"name":"Empty Object","matrix":[-1.02772458195665,0,0,0,0,0.8443827094390672,0,0,0,0,0.8443827094390672,0,-45.92029332640335,0,2.8421709430404014e-14,1.0000000000000004],"children":[30]},{"name":"Cube 3","matrix":[-0.009918993788760232,0.058897096191383176,0.8422677161224313,0,-0.5085440151239938,0.6719809793927042,-0.052978373093563985,0,-0.6739931440626383,-0.5078925628460204,0.027578005038755862,0,55.0227536997401,1.2971536802221015,-0.07043401173021428,0.9999999999999996],"mesh":5},{"name":"Cube 8","matrix":[3.127388315890695,0,0,0,0,3.127388315890695,0,0,0,0,3.127388315890695,0,7.105427357601002e-15,8.112271876364005,-2.0071290443203416,1],"mesh":6},{"name":"Cube","matrix":[3.127388315890695,0,0,0,0,3.127388315890695,0,0,0,0,3.127388315890695,0,7.105427357601002e-15,8.112271876364005,3.9990161856410493,1],"mesh":7},{"name":"Cube 6","matrix":[1,0,0,0,0,0.9812902330981992,0.19253435648237102,0,0,-0.19253435648237102,0.9812902330981992,0,2.2172510623932453,-2.9912673197092086,14.629478325426733,1],"mesh":8},{"name":"Cube 6","matrix":[1,0,0,0,0,0.9812902330981992,0.19253435648237102,0,0,-0.19253435648237102,0.9812902330981992,0,2.2172510623932453,-2.9912673197092086,14.629478325426733,1],"mesh":9},{"name":"Cube 6","matrix":[1,0,0,0,0,0.9812902330981992,0.19253435648237102,0,0,-0.19253435648237102,0.9812902330981992,0,2.2172510623932453,-2.9912673197092086,14.629478325426733,1],"mesh":10},{"name":"Cube 6","matrix":[1,0,0,0,0,0.9812902330981992,0.19253435648237102,0,0,-0.19253435648237102,0.9812902330981992,0,2.2172510623932453,-2.9912673197092086,14.629478325426733,1],"mesh":11},{"name":"Cube 6","matrix":[0.8645247229389962,-0.15447622902471284,0.4782615373344935,0,-0.08004755077677,0.8971249414908097,0.434464301145386,0,-0.4961747605853099,-0.41388879426895925,0.7632212476973476,0,0.4303373253339374,-7.520839641067937,5.31147898581463,1],"mesh":12},{"name":"Cube 4","matrix":[-0.011747035648503174,0.0697516606308874,0.9974952195337583,0,-0.6022672058998289,0.7958251298621563,-0.06274213398893258,0,-0.7982081306595916,-0.6014956928516682,0.03266055158457232,0,2.0386173966918473,1.5362153508375513,-0.08341479632741763,1],"mesh":13}],"cameras":[{"type":"orthographic","orthographic":{"xmag":1536,"ymag":792,"zfar":50000,"znear":-50000}},{"type":"orthographic","orthographic":{"xmag":1536,"ymag":792,"zfar":100000,"znear":-100000}}],"meshes":[{"primitives":[{"attributes":{"POSITION":1,"NORMAL":2,"FACEMAP":3,"COLOR":4},"indices":0}]},{"primitives":[{"attributes":{"POSITION":6,"NORMAL":7,"FACEMAP":8,"COLOR":9},"indices":5}]},{"primitives":[{"attributes":{"POSITION":11,"NORMAL":12,"FACEMAP":13,"COLOR":14},"indices":10}]},{"primitives":[{"attributes":{"POSITION":16,"NORMAL":17,"FACEMAP":18,"COLOR":19},"indices":15}]},{"primitives":[{"attributes":{"POSITION":21,"NORMAL":22,"FACEMAP":23,"COLOR":24},"indices":20}]},{"primitives":[{"attributes":{"POSITION":26,"NORMAL":27,"FACEMAP":28,"COLOR":29},"indices":25}]},{"primitives":[{"attributes":{"POSITION":31,"NORMAL":32,"FACEMAP":33,"COLOR":34,"RANDOMCOLOR":35},"indices":30}]},{"primitives":[{"attributes":{"POSITION":37,"NORMAL":38,"FACEMAP":39,"COLOR":40},"indices":36}]},{"primitives":[{"attributes":{"POSITION":42,"NORMAL":43,"FACEMAP":44,"COLOR":45},"indices":41}]},{"primitives":[{"attributes":{"POSITION":47,"NORMAL":48,"FACEMAP":49,"COLOR":50},"indices":46}]},{"primitives":[{"attributes":{"POSITION":52,"NORMAL":53,"FACEMAP":54,"COLOR":55},"indices":51}]},{"primitives":[{"attributes":{"POSITION":57,"NORMAL":58,"FACEMAP":59,"COLOR":60},"indices":56}]},{"primitives":[{"attributes":{"POSITION":62,"NORMAL":63,"FACEMAP":64,"COLOR":65},"indices":61}]},{"primitives":[{"attributes":{"POSITION":67,"NORMAL":68,"FACEMAP":69,"COLOR":70,"RANDOMCOLOR":71},"indices":66}]}],"buffers":[{"uri":"data:application/octet-stream;base64,","byteLength":4608},{"uri":"data:application/octet-stream;base64,","byteLength":4608},{"uri":"data:application/octet-stream;base64,","byteLength":4608},{"uri":"data:application/octet-stream;base64,","byteLength":4608},{"uri":"data:application/octet-stream;base64,","byteLength":8064},{"uri":"data:application/octet-stream;base64,","byteLength":4608},{"uri":"data:application/octet-stream;base64,","byteLength":12000},{"uri":"data:application/octet-stream;base64,","byteLength":1152},{"uri":"data:application/octet-stream;base64,","byteLength":4608},{"uri":"data:application/octet-stream;base64,","byteLength":4608},{"uri":"data:application/octet-stream;base64,","byteLength":4608},{"uri":"data:application/octet-stream;base64,","byteLength":4608},{"uri":"data:application/octet-stream;base64,","byteLength":8064},{"uri":"data:application/octet-stream;base64,","byteLength":5760}],"bufferViews":[{"buffer":0,"byteOffset":0,"byteLength":576,"target":34963},{"buffer":0,"byteOffset":576,"byteLength":1152,"target":34962},{"buffer":0,"byteOffset":1728,"byteLength":1152,"target":34962},{"buffer":0,"byteOffset":2880,"byteLength":192,"target":34962},{"buffer":0,"byteOffset":3072,"byteLength":1536,"target":34962},{"buffer":1,"byteOffset":0,"byteLength":576,"target":34963},{"buffer":1,"byteOffset":576,"byteLength":1152,"target":34962},{"buffer":1,"byteOffset":1728,"byteLength":1152,"target":34962},{"buffer":1,"byteOffset":2880,"byteLength":192,"target":34962},{"buffer":1,"byteOffset":3072,"byteLength":1536,"target":34962},{"buffer":2,"byteOffset":0,"byteLength":576,"target":34963},{"buffer":2,"byteOffset":576,"byteLength":1152,"target":34962},{"buffer":2,"byteOffset":1728,"byteLength":1152,"target":34962},{"buffer":2,"byteOffset":2880,"byteLength":192,"target":34962},{"buffer":2,"byteOffset":3072,"byteLength":1536,"target":34962},{"buffer":3,"byteOffset":0,"byteLength":576,"target":34963},{"buffer":3,"byteOffset":576,"byteLength":1152,"target":34962},{"buffer":3,"byteOffset":1728,"byteLength":1152,"target":34962},{"buffer":3,"byteOffset":2880,"byteLength":192,"target":34962},{"buffer":3,"byteOffset":3072,"byteLength":1536,"target":34962},{"buffer":4,"byteOffset":0,"byteLength":1008,"target":34963},{"buffer":4,"byteOffset":1008,"byteLength":2016,"target":34962},{"buffer":4,"byteOffset":3024,"byteLength":2016,"target":34962},{"buffer":4,"byteOffset":5040,"byteLength":336,"target":34962},{"buffer":4,"byteOffset":5376,"byteLength":2688,"target":34962},{"buffer":5,"byteOffset":0,"byteLength":576,"target":34963},{"buffer":5,"byteOffset":576,"byteLength":1152,"target":34962},{"buffer":5,"byteOffset":1728,"byteLength":1152,"target":34962},{"buffer":5,"byteOffset":2880,"byteLength":192,"target":34962},{"buffer":5,"byteOffset":3072,"byteLength":1536,"target":34962},{"buffer":6,"byteOffset":0,"byteLength":1200,"target":34963},{"buffer":6,"byteOffset":1200,"byteLength":2400,"target":34962},{"buffer":6,"byteOffset":3600,"byteLength":2400,"target":34962},{"buffer":6,"byteOffset":6000,"byteLength":400,"target":34962},{"buffer":6,"byteOffset":6400,"byteLength":3200,"target":34962},{"buffer":6,"byteOffset":9600,"byteLength":2400,"target":34962},{"buffer":7,"byteOffset":0,"byteLength":144,"target":34963},{"buffer":7,"byteOffset":144,"byteLength":288,"target":34962},{"buffer":7,"byteOffset":432,"byteLength":288,"target":34962},{"buffer":7,"byteOffset":720,"byteLength":48,"target":34962},{"buffer":7,"byteOffset":768,"byteLength":384,"target":34962},{"buffer":8,"byteOffset":0,"byteLength":576,"target":34963},{"buffer":8,"byteOffset":576,"byteLength":1152,"target":34962},{"buffer":8,"byteOffset":1728,"byteLength":1152,"target":34962},{"buffer":8,"byteOffset":2880,"byteLength":192,"target":34962},{"buffer":8,"byteOffset":3072,"byteLength":1536,"target":34962},{"buffer":9,"byteOffset":0,"byteLength":576,"target":34963},{"buffer":9,"byteOffset":576,"byteLength":1152,"target":34962},{"buffer":9,"byteOffset":1728,"byteLength":1152,"target":34962},{"buffer":9,"byteOffset":2880,"byteLength":192,"target":34962},{"buffer":9,"byteOffset":3072,"byteLength":1536,"target":34962},{"buffer":10,"byteOffset":0,"byteLength":576,"target":34963},{"buffer":10,"byteOffset":576,"byteLength":1152,"target":34962},{"buffer":10,"byteOffset":1728,"byteLength":1152,"target":34962},{"buffer":10,"byteOffset":2880,"byteLength":192,"target":34962},{"buffer":10,"byteOffset":3072,"byteLength":1536,"target":34962},{"buffer":11,"byteOffset":0,"byteLength":576,"target":34963},{"buffer":11,"byteOffset":576,"byteLength":1152,"target":34962},{"buffer":11,"byteOffset":1728,"byteLength":1152,"target":34962},{"buffer":11,"byteOffset":2880,"byteLength":192,"target":34962},{"buffer":11,"byteOffset":3072,"byteLength":1536,"target":34962},{"buffer":12,"byteOffset":0,"byteLength":1008,"target":34963},{"buffer":12,"byteOffset":1008,"byteLength":2016,"target":34962},{"buffer":12,"byteOffset":3024,"byteLength":2016,"target":34962},{"buffer":12,"byteOffset":5040,"byteLength":336,"target":34962},{"buffer":12,"byteOffset":5376,"byteLength":2688,"target":34962},{"buffer":13,"byteOffset":0,"byteLength":576,"target":34963},{"buffer":13,"byteOffset":576,"byteLength":1152,"target":34962},{"buffer":13,"byteOffset":1728,"byteLength":1152,"target":34962},{"buffer":13,"byteOffset":2880,"byteLength":192,"target":34962},{"buffer":13,"byteOffset":3072,"byteLength":1536,"target":34962},{"buffer":13,"byteOffset":4608,"byteLength":1152,"target":34962}],"accessors":[{"bufferView":0,"byteOffset":0,"componentType":5125,"count":144,"type":"SCALAR","min":[0],"max":[95]},{"bufferView":1,"byteOffset":0,"componentType":5126,"count":96,"type":"VEC3","min":[-12,-3.654146671295166,-12],"max":[12,12,12]},{"bufferView":2,"byteOffset":0,"componentType":5126,"count":96,"type":"VEC3","min":[-0.826783299446106,-0.9998423457145691,-0.8382701873779297],"max":[0.8267832398414612,0.7847141027450562,0.6980230212211609]},{"bufferView":3,"byteOffset":0,"componentType":5125,"count":48,"type":"SCALAR","min":[0],"max":[47]},{"bufferView":4,"byteOffset":0,"componentType":5126,"count":96,"type":"VEC4","min":[0,0,0,0],"max":[0,0,0,0]},{"bufferView":5,"byteOffset":0,"componentType":5125,"count":144,"type":"SCALAR","min":[0],"max":[95]},{"bufferView":6,"byteOffset":0,"componentType":5126,"count":96,"type":"VEC3","min":[-18,-13.91928768157959,-18],"max":[18,16.066238403320312,18]},{"bufferView":7,"byteOffset":0,"componentType":5126,"count":96,"type":"VEC3","min":[-0.9037100672721863,-0.9999855160713196,-0.9023101925849915],"max":[0.9037100076675415,0.928475558757782,0.9035351872444153]},{"bufferView":8,"byteOffset":0,"componentType":5125,"count":48,"type":"SCALAR","min":[0],"max":[47]},{"bufferView":9,"byteOffset":0,"componentType":5126,"count":96,"type":"VEC4","min":[0,0,0,0],"max":[0,0,0,0]},{"bufferView":10,"byteOffset":0,"componentType":5125,"count":144,"type":"SCALAR","min":[0],"max":[95]},{"bufferView":11,"byteOffset":0,"componentType":5126,"count":96,"type":"VEC3","min":[-10.25490951538086,-12.888141632080078,-6.5],"max":[4.875,6.5,6.5]},{"bufferView":12,"byteOffset":0,"componentType":5126,"count":96,"type":"VEC3","min":[-0.731037437915802,-0.8703885078430176,-0.9431957602500916],"max":[0.9681127071380615,0.8703882694244385,0.9431957602500916]},{"bufferView":13,"byteOffset":0,"componentType":5125,"count":48,"type":"SCALAR","min":[0],"max":[47]},{"bufferView":14,"byteOffset":0,"componentType":5126,"count":96,"type":"VEC4","min":[0,0,0,0],"max":[0,0,0,0]},{"bufferView":15,"byteOffset":0,"componentType":5125,"count":144,"type":"SCALAR","min":[0],"max":[95]},{"bufferView":16,"byteOffset":0,"componentType":5126,"count":96,"type":"VEC3","min":[-10.25490951538086,-12.888141632080078,-6.5],"max":[4.875,6.5,6.5]},{"bufferView":17,"byteOffset":0,"componentType":5126,"count":96,"type":"VEC3","min":[-0.731037437915802,-0.8703885078430176,-0.9431957602500916],"max":[0.9681127071380615,0.8703882694244385,0.9431957602500916]},{"bufferView":18,"byteOffset":0,"componentType":5125,"count":48,"type":"SCALAR","min":[0],"max":[47]},{"bufferView":19,"byteOffset":0,"componentType":5126,"count":96,"type":"VEC4","min":[0,0,0,0],"max":[0,0,0,0]},{"bufferView":20,"byteOffset":0,"componentType":5125,"count":252,"type":"SCALAR","min":[0],"max":[167]},{"bufferView":21,"byteOffset":0,"componentType":5126,"count":168,"type":"VEC3","min":[-24.148208618164062,-16,-16],"max":[16,24.947864532470703,2.0937952995300293]},{"bufferView":22,"byteOffset":0,"componentType":5126,"count":168,"type":"VEC3","min":[-0.9424340724945068,-0.8699421286582947,-0.878071665763855],"max":[0.9101884365081787,0.9509287476539612,1]},{"bufferView":23,"byteOffset":0,"componentType":5125,"count":84,"type":"SCALAR","min":[0],"max":[83]},{"bufferView":24,"byteOffset":0,"componentType":5126,"count":168,"type":"VEC4","min":[0,0,0,0],"max":[0,0,0,0]},{"bufferView":25,"byteOffset":0,"componentType":5125,"count":144,"type":"SCALAR","min":[0],"max":[95]},{"bufferView":26,"byteOffset":0,"componentType":5126,"count":96,"type":"VEC3","min":[-5.453760147094727,-22,-31.202436447143555],"max":[5.453760147094727,22,36.310420989990234]},{"bufferView":27,"byteOffset":0,"componentType":5126,"count":96,"type":"VEC3","min":[-0.9992773532867432,-0.5160394310951233,-0.3501991331577301],"max":[0.9992774724960327,0.5160394310951233,0.35051700472831726]},{"bufferView":28,"byteOffset":0,"componentType":5125,"count":48,"type":"SCALAR","min":[0],"max":[47]},{"bufferView":29,"byteOffset":0,"componentType":5126,"count":96,"type":"VEC4","min":[0,0,0,0],"max":[0,0,0,0]},{"bufferView":30,"byteOffset":0,"componentType":5125,"count":300,"type":"SCALAR","min":[0],"max":[199]},{"bufferView":31,"byteOffset":0,"componentType":5126,"count":200,"type":"VEC3","min":[-42.54521942138672,-41.648475646972656,-36.46058654785156],"max":[42.54521942138672,36.46058654785156,36.46058654785156]},{"bufferView":32,"byteOffset":0,"componentType":5126,"count":200,"type":"VEC3","min":[-0.9121416807174683,-0.8682834506034851,-0.9152151346206665],"max":[0.9121416807174683,0.870388388633728,0.9492412209510803]},{"bufferView":33,"byteOffset":0,"componentType":5125,"count":100,"type":"SCALAR","min":[0],"max":[99]},{"bufferView":34,"byteOffset":0,"componentType":5126,"count":200,"type":"VEC4","min":[0,0,0,0],"max":[0,0,0,0]},{"bufferView":35,"byteOffset":0,"componentType":5126,"count":200,"type":"VEC3","min":[0.594496488571167,0.7476362586021423,0.8139760494232178],"max":[0.594496488571167,0.7476362586021423,0.8139760494232178]},{"bufferView":36,"byteOffset":0,"componentType":5125,"count":36,"type":"SCALAR","min":[0],"max":[23]},{"bufferView":37,"byteOffset":0,"componentType":5126,"count":24,"type":"VEC3","min":[-26.40947151184082,-22.524127960205078,22.81497573852539],"max":[26.844959259033203,21.554973602294922,35.82366943359375]},{"bufferView":38,"byteOffset":0,"componentType":5126,"count":24,"type":"VEC3","min":[-0.30731964111328125,-0.3245714604854584,0.890470027923584],"max":[0.30692732334136963,0.33594465255737305,0.9098835587501526]},{"bufferView":39,"byteOffset":0,"componentType":5125,"count":12,"type":"SCALAR","min":[0],"max":[11]},{"bufferView":40,"byteOffset":0,"componentType":5126,"count":24,"type":"VEC4","min":[0,0,0,0],"max":[0,0,0,0]},{"bufferView":41,"byteOffset":0,"componentType":5125,"count":144,"type":"SCALAR","min":[0],"max":[95]},{"bufferView":42,"byteOffset":0,"componentType":5126,"count":96,"type":"VEC3","min":[-7.504100799560547,-6.250851154327393,-17.83127212524414],"max":[3.06959867477417,6.488099575042725,-12.032099723815918]},{"bufferView":43,"byteOffset":0,"componentType":5126,"count":96,"type":"VEC3","min":[-0.8556362986564636,-0.8088171482086182,-0.9847129583358765],"max":[0.8556642532348633,0.8088172078132629,0.984713077545166]},{"bufferView":44,"byteOffset":0,"componentType":5125,"count":48,"type":"SCALAR","min":[0],"max":[47]},{"bufferView":45,"byteOffset":0,"componentType":5126,"count":96,"type":"VEC4","min":[0,0,0,0],"max":[0,0,0,0]},{"bufferView":46,"byteOffset":0,"componentType":5125,"count":144,"type":"SCALAR","min":[0],"max":[95]},{"bufferView":47,"byteOffset":0,"componentType":5126,"count":96,"type":"VEC3","min":[-7.504100799560547,-6.250851154327393,-17.83127212524414],"max":[3.06959867477417,6.488099575042725,-12.032099723815918]},{"bufferView":48,"byteOffset":0,"componentType":5126,"count":96,"type":"VEC3","min":[-0.8556362986564636,-0.8088171482086182,-0.9847129583358765],"max":[0.8556642532348633,0.8088172078132629,0.984713077545166]},{"bufferView":49,"byteOffset":0,"componentType":5125,"count":48,"type":"SCALAR","min":[0],"max":[47]},{"bufferView":50,"byteOffset":0,"componentType":5126,"count":96,"type":"VEC4","min":[0,0,0,0],"max":[0,0,0,0]},{"bufferView":51,"byteOffset":0,"componentType":5125,"count":144,"type":"SCALAR","min":[0],"max":[95]},{"bufferView":52,"byteOffset":0,"componentType":5126,"count":96,"type":"VEC3","min":[-7.504100799560547,-6.250851154327393,-17.83127212524414],"max":[3.06959867477417,6.488099575042725,-12.032099723815918]},{"bufferView":53,"byteOffset":0,"componentType":5126,"count":96,"type":"VEC3","min":[-0.8556362986564636,-0.8088171482086182,-0.9847129583358765],"max":[0.8556642532348633,0.8088172078132629,0.984713077545166]},{"bufferView":54,"byteOffset":0,"componentType":5125,"count":48,"type":"SCALAR","min":[0],"max":[47]},{"bufferView":55,"byteOffset":0,"componentType":5126,"count":96,"type":"VEC4","min":[0,0,0,0],"max":[0,0,0,0]},{"bufferView":56,"byteOffset":0,"componentType":5125,"count":144,"type":"SCALAR","min":[0],"max":[95]},{"bufferView":57,"byteOffset":0,"componentType":5126,"count":96,"type":"VEC3","min":[-7.504100799560547,-6.250851154327393,-17.83127212524414],"max":[3.06959867477417,6.488099575042725,-12.032099723815918]},{"bufferView":58,"byteOffset":0,"componentType":5126,"count":96,"type":"VEC3","min":[-0.8556362986564636,-0.8088171482086182,-0.9847129583358765],"max":[0.8556642532348633,0.8088172078132629,0.984713077545166]},{"bufferView":59,"byteOffset":0,"componentType":5125,"count":48,"type":"SCALAR","min":[0],"max":[47]},{"bufferView":60,"byteOffset":0,"componentType":5126,"count":96,"type":"VEC4","min":[0,0,0,0],"max":[0,0,0,0]},{"bufferView":61,"byteOffset":0,"componentType":5125,"count":252,"type":"SCALAR","min":[0],"max":[167]},{"bufferView":62,"byteOffset":0,"componentType":5126,"count":168,"type":"VEC3","min":[-24.148208618164062,-16,-16],"max":[16,24.947864532470703,2.0937952995300293]},{"bufferView":63,"byteOffset":0,"componentType":5126,"count":168,"type":"VEC3","min":[-0.9424340724945068,-0.8699421286582947,-0.878071665763855],"max":[0.9101884365081787,0.9509287476539612,1]},{"bufferView":64,"byteOffset":0,"componentType":5125,"count":84,"type":"SCALAR","min":[0],"max":[83]},{"bufferView":65,"byteOffset":0,"componentType":5126,"count":168,"type":"VEC4","min":[0,0,0,0],"max":[0,0,0,0]},{"bufferView":66,"byteOffset":0,"componentType":5125,"count":144,"type":"SCALAR","min":[0],"max":[95]},{"bufferView":67,"byteOffset":0,"componentType":5126,"count":96,"type":"VEC3","min":[-5.453760147094727,-22,-31.202436447143555],"max":[5.453760147094727,22,36.310420989990234]},{"bufferView":68,"byteOffset":0,"componentType":5126,"count":96,"type":"VEC3","min":[-0.9992773532867432,-0.5160394310951233,-0.3501991331577301],"max":[0.9992774724960327,0.5160394310951233,0.35051700472831726]},{"bufferView":69,"byteOffset":0,"componentType":5125,"count":48,"type":"SCALAR","min":[0],"max":[47]},{"bufferView":70,"byteOffset":0,"componentType":5126,"count":96,"type":"VEC4","min":[0,0,0,0],"max":[0,0,0,0]},{"bufferView":71,"byteOffset":0,"componentType":5126,"count":96,"type":"VEC3","min":[0.15314720571041107,0.9911187887191772,0.861907958984375],"max":[0.15314720571041107,0.9911187887191772,0.861907958984375]}],"extensions":{"KHR_lights_punctual":{"lights":[{"type":"directional","name":"Directional Light","color":[1,1,1],"intensity":0.75}]}},"extensionsUsed":["KHR_lights_punctual"]}